<svg width="10" height="8" viewBox="0 0 10 8" fill="none" xmlns="http://www.w3.org/2000/svg">
<path d="M2.82568 6.94226L2.82604 6.94263C2.93274 7.04951 3.07758 7.10954 3.22862 7.10948H3.22904C3.38008 7.10954 3.52492 7.04951 3.63162 6.94263L3.63194 6.9423L9.46178 1.11331L2.82568 6.94226ZM2.82568 6.94226L0.538219 4.65566L2.82568 6.94226ZM3.22883 6.97733L2.87528 6.62377L0.722688 4.47119C0.722669 4.47117 0.72265 4.47115 0.722631 4.47113C0.67169 4.42027 0.589184 4.42025 0.538219 4.47107C0.487301 4.52201 0.48726 4.60455 0.538097 4.65553L3.22883 6.97733ZM3.22883 6.97733L3.58238 6.62377M3.22883 6.97733L3.58238 6.62377M3.58238 6.62377L9.27731 0.928843M3.58238 6.62377L9.27731 0.928843M9.27731 0.928843C9.27733 0.928824 9.27735 0.928806 9.27737 0.928787M9.27731 0.928843L9.27737 0.928787M9.27737 0.928787C9.32835 0.877886 9.41094 0.877904 9.4619 0.928844M9.27737 0.928787L9.4619 0.928844M9.4619 0.928844C9.51271 0.9798 9.5127 1.06229 9.46186 1.11323L9.4619 0.928844Z" fill="#4A95E3" stroke="#4A95E3"/>
</svg>
