<svg width="12" height="13" viewBox="0 0 12 13" fill="none" xmlns="http://www.w3.org/2000/svg">
<path d="M11 5.25H7V1.25C7 0.984784 6.89464 0.73043 6.70711 0.542893C6.51957 0.355357 6.26522 0.25 6 0.25C5.73478 0.25 5.48043 0.355357 5.29289 0.542893C5.10536 0.73043 5 0.984784 5 1.25V5.25H1C0.734784 5.25 0.48043 5.35536 0.292893 5.54289C0.105357 5.73043 0 5.98478 0 6.25C0 6.51522 0.105357 6.76957 0.292893 6.95711C0.48043 7.14464 0.734784 7.25 1 7.25H5V11.25C5 11.5152 5.10536 11.7696 5.29289 11.9571C5.48043 12.1446 5.73478 12.25 6 12.25C6.26522 12.25 6.51957 12.1446 6.70711 11.9571C6.89464 11.7696 7 11.5152 7 11.25V7.25H11C11.2652 7.25 11.5196 7.14464 11.7071 6.95711C11.8946 6.76957 12 6.51522 12 6.25C12 5.98478 11.8946 5.73043 11.7071 5.54289C11.5196 5.35536 11.2652 5.25 11 5.25Z" fill="#374957"/>
</svg>
