<svg width="19" height="17" viewBox="0 0 19 17" fill="none" xmlns="http://www.w3.org/2000/svg">
<path d="M13.2314 0.687378C12.38 0.700514 11.5472 0.936268 10.817 1.37083C10.0869 1.80539 9.48528 2.42338 9.07295 3.16238C8.66061 2.42338 8.059 1.80539 7.32885 1.37083C6.59871 0.936268 5.76589 0.700514 4.91451 0.687378C3.55731 0.745871 2.2786 1.33482 1.35775 2.32555C0.436906 3.31629 -0.0512266 4.62827 -1.85263e-06 5.97488C-1.85263e-06 9.38513 3.61859 13.1096 6.65349 15.6349C7.33111 16.1997 8.18785 16.5094 9.07295 16.5094C9.95805 16.5094 10.8148 16.1997 11.4924 15.6349C14.5273 13.1096 18.1459 9.38513 18.1459 5.97488C18.1971 4.62827 17.709 3.31629 16.7881 2.32555C15.8673 1.33482 14.5886 0.745871 13.2314 0.687378ZM10.5208 14.4874C10.1156 14.8259 9.60277 15.0116 9.07295 15.0116C8.54312 15.0116 8.03033 14.8259 7.62506 14.4874C3.74032 11.2541 1.51216 8.15213 1.51216 5.97488C1.46047 5.02592 1.78916 4.09518 2.42653 3.38565C3.0639 2.67613 3.95825 2.24539 4.91451 2.18738C5.87078 2.24539 6.76512 2.67613 7.40249 3.38565C8.03987 4.09518 8.36855 5.02592 8.31687 5.97488C8.31687 6.17379 8.39653 6.36456 8.53832 6.50521C8.68011 6.64586 8.87242 6.72488 9.07295 6.72488C9.27347 6.72488 9.46578 6.64586 9.60758 6.50521C9.74937 6.36456 9.82903 6.17379 9.82903 5.97488C9.77734 5.02592 10.106 4.09518 10.7434 3.38565C11.3808 2.67613 12.2751 2.24539 13.2314 2.18738C14.1876 2.24539 15.082 2.67613 15.7194 3.38565C16.3567 4.09518 16.6854 5.02592 16.6337 5.97488C16.6337 8.15213 14.4056 11.2541 10.5208 14.4844V14.4874Z" fill="#FF4A4A"/>
</svg>
