<svg width="10" height="10" viewBox="0 0 10 10" fill="none" xmlns="http://www.w3.org/2000/svg">
<path d="M7.82829 1.00736L4.99986 3.83579L2.17143 1.00736C1.9839 0.819823 1.72954 0.714467 1.46433 0.714466C1.19911 0.714466 0.944757 0.819823 0.75722 1.00736C0.569684 1.1949 0.464327 1.44925 0.464327 1.71447C0.464328 1.97968 0.569684 2.23404 0.75722 2.42157L3.58565 5.25L0.75722 8.07843C0.569684 8.26596 0.464328 8.52032 0.464327 8.78553C0.464327 9.05075 0.569684 9.3051 0.75722 9.49264C0.944757 9.68018 1.19911 9.78553 1.46433 9.78553C1.72954 9.78553 1.9839 9.68018 2.17143 9.49264L4.99986 6.66421L7.82829 9.49264C8.01582 9.68018 8.27018 9.78553 8.5354 9.78553C8.80061 9.78553 9.05497 9.68018 9.2425 9.49264C9.43004 9.3051 9.5354 9.05075 9.5354 8.78553C9.5354 8.52032 9.43004 8.26596 9.2425 8.07843L6.41407 5.25L9.2425 2.42157C9.43004 2.23404 9.5354 1.97968 9.5354 1.71447C9.5354 1.44925 9.43004 1.1949 9.2425 1.00736C9.05497 0.819823 8.80061 0.714466 8.5354 0.714466C8.27018 0.714466 8.01582 0.819823 7.82829 1.00736Z" fill="white"/>
</svg>
