<svg width="92" height="55" viewBox="0 0 92 55" fill="none" xmlns="http://www.w3.org/2000/svg">
<path fill-rule="evenodd" clip-rule="evenodd" d="M65.8658 51.6225C73.9906 51.8179 82.2934 51.4271 90.062 54.1985C90.525 54.362 91.0344 54.1239 91.2018 53.662C91.3656 53.2001 91.127 52.692 90.6639 52.525C82.7137 49.6896 74.2221 50.0449 65.9085 49.8459C65.417 49.8317 65.0074 50.2225 64.9967 50.7129C64.9825 51.2032 65.3743 51.6083 65.8658 51.6225Z" fill="#4A95E3"/>
<path fill-rule="evenodd" clip-rule="evenodd" d="M65.1356 39.8554C67.6681 37.531 70.4322 35.7896 73.7733 34.9265C74.2506 34.8036 74.5355 34.3186 74.4144 33.8439C74.2897 33.3692 73.8018 33.0838 73.3281 33.2068C69.6949 34.1448 66.6851 36.0216 63.9317 38.5475C63.5684 38.8794 63.5434 39.4419 63.8782 39.8029C64.2095 40.1635 64.7759 40.1873 65.1356 39.8554Z" fill="#4A95E3"/>
<path fill-rule="evenodd" clip-rule="evenodd" d="M58.0903 14.4778C59.2514 10.5071 61.5382 7.40095 65.0431 5.15785C65.4563 4.89314 65.5774 4.34312 65.3103 3.93059C65.0467 3.51807 64.4946 3.39797 64.0814 3.66268C60.2025 6.14633 57.6664 9.58365 56.3805 13.98C56.2416 14.4504 56.5159 14.9443 56.9861 15.0815C57.4598 15.219 57.9549 14.9482 58.0903 14.4778Z" fill="#4A95E3"/>
<path fill-rule="evenodd" clip-rule="evenodd" d="M18.0719 9.08903C17.3809 9.90022 16.7611 10.7743 16.2339 11.7049C15.9989 12.1192 15.5857 12.9996 15.5216 13.7547C15.4503 14.5591 15.7246 15.2378 16.4298 15.5952C17.3666 16.0692 18.1147 16.0198 18.6917 15.7331C19.2473 15.4577 19.6819 14.9166 19.9561 14.191C20.4797 12.8042 20.4014 10.6848 20.1271 9.47527C20.8644 8.71632 21.673 8.02806 22.5385 7.4162C28.9856 2.85928 38.4426 4.53958 45.7196 11.3531C48.2664 13.7387 49.4917 18.7486 50.1292 24.1541C51.123 32.5704 50.5567 41.9707 50.4783 44.7247C50.4605 45.4048 50.5246 45.8084 50.5602 45.8891C50.7276 46.2856 51.0233 46.3886 51.2299 46.4277C51.5291 46.481 51.7677 46.4242 51.96 46.3247C52.2201 46.1883 52.4338 45.9481 52.5335 45.5775C52.587 45.3728 52.6012 45.0878 52.5941 44.784C52.5869 44.5733 52.5442 44.3431 52.5869 44.1921C52.8648 43.2249 53.1996 42.2805 53.5273 41.3293C54.6208 38.1318 56.0349 35.1355 57.6057 32.1426C62.596 22.633 67.4224 12.585 75.6041 5.33974C75.971 5.01463 76.0066 4.45252 75.6789 4.08584C75.3548 3.71915 74.792 3.68574 74.4216 4.01121C66.076 11.3996 61.1178 21.6207 56.0278 31.3186C54.692 33.8645 53.4667 36.4139 52.448 39.0805C52.5513 34.3633 52.5121 27.8337 51.6466 22.0563C50.8772 16.9181 49.4133 12.3771 46.9377 10.058C38.9661 2.59386 28.5689 0.974695 21.5091 5.96688C20.754 6.50127 20.0345 7.08898 19.3649 7.72641C15.6712 1.07313 7.76368 -1.59353 0.775182 1.58867C0.326379 1.79227 0.130477 2.31956 0.333506 2.76548C0.540098 3.2114 1.06724 3.40826 1.51605 3.20466C7.81353 0.337264 14.9552 2.89624 18.0719 9.08903ZM18.5884 11.3165C18.2999 11.723 18.0327 12.1444 17.7834 12.58C17.6516 12.8138 17.4236 13.2633 17.3274 13.7032C17.3061 13.8062 17.3025 13.9675 17.3025 14.0421C17.5483 14.1629 17.7406 14.2212 17.8973 14.1427C18.0932 14.0461 18.193 13.8186 18.2892 13.5646C18.5314 12.9272 18.6097 12.0822 18.5884 11.3165Z" fill="#4A95E3"/>
</svg>
